<svg width="210" height="315" viewBox="0 0 210 315" fill="none" xmlns="http://www.w3.org/2000/svg">
<g clip-path="url(#clip0_0_551)">
<rect width="211.09" height="626.515" transform="translate(-0.515625 -19.874)" fill="#5CD6C0"/>
<rect x="8.42969" y="258.487" width="191.723" height="63.7215" rx="5.5896" fill="white"/>
<path d="M51.9018 285.143H55.0912V288.966H54.0348L53.904 288.292H53.8235C53.307 288.808 52.6061 289.066 51.7207 289.066C50.7145 289.066 49.9063 288.741 49.2959 288.09C48.6922 287.433 48.3904 286.585 48.3904 285.545C48.3904 284.465 48.7224 283.576 49.3864 282.879C50.0505 282.174 50.9091 281.822 51.9621 281.822C52.8341 281.822 53.5384 282.034 54.075 282.456C54.6116 282.879 54.9302 283.419 55.0308 284.076H53.582C53.4747 283.754 53.2802 283.503 52.9984 283.321C52.7167 283.14 52.3713 283.05 51.9621 283.05C51.2914 283.05 50.7548 283.285 50.3523 283.754C49.9499 284.217 49.7486 284.814 49.7486 285.545C49.7486 286.236 49.9398 286.799 50.3221 287.235C50.7045 287.665 51.2277 287.879 51.8917 287.879C52.4417 287.879 52.8911 287.758 53.2399 287.517C53.5954 287.276 53.7732 286.93 53.7732 286.481V286.179H51.9018V285.143ZM58.5281 289.066C57.7702 289.066 57.1363 288.822 56.6266 288.332C56.1235 287.836 55.872 287.205 55.872 286.44C55.872 285.676 56.1235 285.052 56.6266 284.569C57.1296 284.079 57.7635 283.835 58.5281 283.835C59.2928 283.835 59.9267 284.079 60.4297 284.569C60.9328 285.052 61.1843 285.676 61.1843 286.44C61.1843 287.212 60.9328 287.842 60.4297 288.332C59.9267 288.822 59.2928 289.066 58.5281 289.066ZM58.5281 287.95C58.9373 287.95 59.2693 287.805 59.5242 287.517C59.7791 287.229 59.9065 286.87 59.9065 286.44C59.9065 286.018 59.7791 285.666 59.5242 285.384C59.2693 285.096 58.9373 284.951 58.5281 284.951C58.119 284.951 57.787 285.096 57.5321 285.384C57.2839 285.666 57.1598 286.018 57.1598 286.44C57.1598 286.87 57.2872 287.229 57.5421 287.517C57.797 287.805 58.1257 287.95 58.5281 287.95ZM64.2536 289.066C63.4956 289.066 62.8617 288.822 62.352 288.332C61.8489 287.836 61.5974 287.205 61.5974 286.44C61.5974 285.676 61.8489 285.052 62.352 284.569C62.855 284.079 63.4889 283.835 64.2536 283.835C65.0182 283.835 65.6521 284.079 66.1551 284.569C66.6582 285.052 66.9097 285.676 66.9097 286.44C66.9097 287.212 66.6582 287.842 66.1551 288.332C65.6521 288.822 65.0182 289.066 64.2536 289.066ZM64.2536 287.95C64.6627 287.95 64.9947 287.805 65.2496 287.517C65.5045 287.229 65.6319 286.87 65.6319 286.44C65.6319 286.018 65.5045 285.666 65.2496 285.384C64.9947 285.096 64.6627 284.951 64.2536 284.951C63.8444 284.951 63.5124 285.096 63.2575 285.384C63.0093 285.666 62.8852 286.018 62.8852 286.44C62.8852 286.87 63.0127 287.229 63.2675 287.517C63.5224 287.805 63.8511 287.95 64.2536 287.95ZM72.2451 284.076C72.0506 284.277 71.7789 284.462 71.4301 284.629C71.6448 284.904 71.7521 285.22 71.7521 285.575C71.7521 286.098 71.5542 286.511 71.1585 286.813C70.7628 287.115 70.2563 287.265 69.6392 287.265C69.3374 287.265 69.0557 287.229 68.7941 287.155C68.6331 287.235 68.5526 287.346 68.5526 287.487C68.5526 287.742 68.774 287.869 69.2167 287.869H70.2027C70.7929 287.869 71.2457 288.003 71.5609 288.272C71.8762 288.533 72.0338 288.895 72.0338 289.358C72.0338 289.895 71.8225 290.314 71.4 290.616C70.9774 290.924 70.4005 291.079 69.6694 291.079C68.9182 291.079 68.3346 290.918 67.9188 290.596C67.5096 290.28 67.2782 289.878 67.2245 289.388L67.9892 288.714C67.6069 288.506 67.4157 288.198 67.4157 287.789C67.4157 287.379 67.6404 287.051 68.0898 286.803C67.6941 286.494 67.4962 286.085 67.4962 285.575C67.4962 285.072 67.684 284.656 68.0596 284.328C68.4419 283.999 68.9484 283.835 69.5789 283.835C70.0216 283.835 70.4106 283.918 70.746 284.086C71.1015 283.905 71.3899 283.667 71.6113 283.372L72.2451 284.076ZM69.6392 286.33C69.9075 286.33 70.1222 286.259 70.2832 286.118C70.4441 285.971 70.5246 285.783 70.5246 285.555C70.5246 285.32 70.4441 285.129 70.2832 284.982C70.1289 284.834 69.9142 284.76 69.6392 284.76C69.3642 284.76 69.1429 284.834 68.9752 284.982C68.8075 285.129 68.7237 285.32 68.7237 285.555C68.7237 285.783 68.8075 285.971 68.9752 286.118C69.1429 286.259 69.3642 286.33 69.6392 286.33ZM70.8063 289.429C70.8063 289.234 70.7326 289.093 70.585 289.006C70.4374 288.919 70.2563 288.875 70.0417 288.875H69.1261L68.4621 289.439C68.5224 289.633 68.6532 289.794 68.8545 289.922C69.0624 290.049 69.3374 290.113 69.6795 290.113C70.0082 290.113 70.2765 290.052 70.4844 289.932C70.699 289.818 70.8063 289.65 70.8063 289.429ZM72.5995 288.966V281.822H73.8874V288.966H72.5995ZM78.192 287.376H79.4296C79.329 287.899 79.0707 288.312 78.6548 288.614C78.2457 288.916 77.7225 289.066 77.0853 289.066C76.3273 289.066 75.7069 288.832 75.2239 288.362C74.741 287.886 74.4995 287.265 74.4995 286.501C74.4995 285.696 74.741 285.052 75.2239 284.569C75.7136 284.079 76.3173 283.835 77.035 283.835C77.7057 283.835 78.2692 284.053 78.7253 284.489C79.1881 284.925 79.4195 285.568 79.4195 286.42C79.4195 286.481 79.4128 286.605 79.3994 286.793H75.7773C75.8041 287.161 75.9316 287.463 76.1596 287.698C76.3944 287.926 76.703 288.04 77.0853 288.04C77.6823 288.04 78.0512 287.819 78.192 287.376ZM77.035 284.861C76.6996 284.861 76.4179 284.961 76.1898 285.163C75.9685 285.364 75.8343 285.619 75.7874 285.927H78.192C78.1786 285.612 78.0646 285.357 77.8499 285.163C77.6353 284.961 77.3636 284.861 77.035 284.861ZM90.2718 281.923V288.966H88.9739V284.287H88.8934L87.1427 288.161H85.8046L84.0438 284.287H83.9633V288.966H82.6654V281.923H84.2954L86.4384 286.752H86.5189L88.6519 281.923H90.2718ZM96.023 288H96.1438V288.966H95.6005C95.0706 288.966 94.7318 288.765 94.5843 288.362C94.2154 288.832 93.662 289.066 92.9242 289.066C92.3876 289.066 91.9549 288.942 91.6263 288.694C91.3043 288.439 91.1433 288.07 91.1433 287.587C91.1433 287.131 91.2942 286.776 91.5961 286.521C91.9046 286.259 92.3071 286.105 92.8034 286.058L94.373 285.897V285.686C94.373 285.418 94.2959 285.213 94.1416 285.072C93.9873 284.931 93.7827 284.861 93.5278 284.861C93.0114 284.861 92.7095 285.112 92.6223 285.615H91.3345C91.3881 285.079 91.6095 284.65 91.9985 284.328C92.3876 283.999 92.8973 283.835 93.5278 283.835C94.1583 283.835 94.6715 283.999 95.0672 284.328C95.463 284.65 95.6608 285.132 95.6608 285.776V287.618C95.6608 287.872 95.7816 288 96.023 288ZM94.373 287.024V286.783L93.2461 286.903C92.7028 286.964 92.4312 287.175 92.4312 287.537C92.4312 287.899 92.6693 288.08 93.1455 288.08C93.4675 288.08 93.7525 287.997 94.0007 287.829C94.2489 287.654 94.373 287.386 94.373 287.024ZM99.3357 283.835C100.02 283.835 100.583 284.076 101.026 284.559C101.475 285.042 101.7 285.676 101.7 286.461C101.7 287.259 101.475 287.893 101.026 288.362C100.577 288.832 100.013 289.066 99.3357 289.066C98.7052 289.066 98.2189 288.875 97.8768 288.493V290.978H96.589V283.935H97.6354L97.746 284.529H97.8366C98.1854 284.066 98.6851 283.835 99.3357 283.835ZM98.2189 287.537C98.447 287.812 98.7522 287.95 99.1345 287.95C99.5168 287.95 99.8254 287.812 100.06 287.537C100.295 287.262 100.412 286.903 100.412 286.461C100.412 286.011 100.295 285.649 100.06 285.374C99.8254 285.092 99.5168 284.951 99.1345 284.951C98.7522 284.951 98.447 285.089 98.2189 285.364C97.9909 285.639 97.8768 286.004 97.8768 286.461C97.8768 286.903 97.9909 287.262 98.2189 287.537ZM104.299 289.066C103.608 289.066 103.072 288.916 102.689 288.614C102.307 288.305 102.099 287.886 102.065 287.356H103.303C103.37 287.859 103.699 288.111 104.289 288.111C104.504 288.111 104.678 288.07 104.812 287.99C104.953 287.903 105.023 287.772 105.023 287.597C105.023 287.416 104.95 287.279 104.802 287.185C104.661 287.084 104.44 286.994 104.138 286.913L103.665 286.793C103.464 286.746 103.29 286.695 103.142 286.642C103.001 286.581 102.854 286.501 102.699 286.4C102.545 286.293 102.428 286.155 102.347 285.988C102.267 285.813 102.226 285.609 102.226 285.374C102.226 284.891 102.408 284.515 102.77 284.247C103.132 283.972 103.578 283.835 104.108 283.835C104.752 283.835 105.245 283.979 105.587 284.267C105.929 284.556 106.12 284.925 106.16 285.374H104.923C104.869 284.985 104.601 284.79 104.118 284.79C103.917 284.79 103.756 284.837 103.635 284.931C103.514 285.018 103.454 285.143 103.454 285.304C103.454 285.464 103.514 285.582 103.635 285.656C103.762 285.723 103.977 285.797 104.279 285.877L104.752 285.998C105.235 286.118 105.604 286.3 105.859 286.541C106.12 286.783 106.251 287.125 106.251 287.567C106.251 288.064 106.066 288.439 105.698 288.694C105.335 288.942 104.869 289.066 104.299 289.066ZM49.0645 294.291C48.8498 294.291 48.662 294.214 48.501 294.06C48.3468 293.906 48.2696 293.724 48.2696 293.517C48.2696 293.295 48.3468 293.111 48.501 292.963C48.662 292.809 48.8498 292.732 49.0645 292.732C49.2791 292.732 49.4602 292.809 49.6078 292.963C49.7621 293.111 49.8392 293.295 49.8392 293.517C49.8392 293.724 49.7621 293.906 49.6078 294.06C49.4535 294.214 49.2724 294.291 49.0645 294.291ZM48.4206 299.966V294.935H49.7084V299.966H48.4206ZM52.5443 300.066C51.8535 300.066 51.3169 299.916 50.9345 299.614C50.5522 299.305 50.3443 298.886 50.3107 298.356H51.5483C51.6153 298.859 51.944 299.111 52.5343 299.111C52.7489 299.111 52.9233 299.07 53.0575 298.99C53.1983 298.903 53.2688 298.772 53.2688 298.597C53.2688 298.416 53.195 298.279 53.0474 298.185C52.9065 298.084 52.6852 297.994 52.3834 297.913L51.9105 297.793C51.7093 297.746 51.5349 297.695 51.3873 297.642C51.2464 297.581 51.0989 297.501 50.9446 297.4C50.7903 297.293 50.6729 297.155 50.5925 296.988C50.512 296.813 50.4717 296.609 50.4717 296.374C50.4717 295.891 50.6528 295.515 51.015 295.247C51.3772 294.972 51.8233 294.835 52.3532 294.835C52.9971 294.835 53.4901 294.979 53.8322 295.267C54.1743 295.556 54.3654 295.925 54.4057 296.374H53.1681C53.1145 295.985 52.8462 295.79 52.3632 295.79C52.162 295.79 52.001 295.837 51.8803 295.931C51.7596 296.018 51.6992 296.143 51.6992 296.304C51.6992 296.464 51.7596 296.582 51.8803 296.656C52.0077 296.723 52.2224 296.797 52.5242 296.877L52.9971 296.998C53.48 297.118 53.849 297.3 54.1038 297.541C54.3654 297.783 54.4962 298.125 54.4962 298.567C54.4962 299.064 54.3118 299.439 53.9429 299.694C53.5807 299.942 53.1145 300.066 52.5443 300.066ZM60.0847 300.066C59.3268 300.066 58.6929 299.822 58.1831 299.332C57.6801 298.836 57.4285 298.205 57.4285 297.44C57.4285 296.676 57.6801 296.052 58.1831 295.569C58.6862 295.079 59.3201 294.835 60.0847 294.835C60.8494 294.835 61.4832 295.079 61.9863 295.569C62.4894 296.052 62.7409 296.676 62.7409 297.44C62.7409 298.212 62.4894 298.842 61.9863 299.332C61.4832 299.822 60.8494 300.066 60.0847 300.066ZM60.0847 298.95C60.4939 298.95 60.8259 298.805 61.0808 298.517C61.3357 298.229 61.4631 297.87 61.4631 297.44C61.4631 297.018 61.3357 296.666 61.0808 296.384C60.8259 296.096 60.4939 295.951 60.0847 295.951C59.6756 295.951 59.3435 296.096 59.0886 296.384C58.8405 296.666 58.7164 297.018 58.7164 297.44C58.7164 297.87 58.8438 298.229 59.0987 298.517C59.3536 298.805 59.6823 298.95 60.0847 298.95ZM65.1976 294.462V294.935H66.4753V295.951H65.1976V299.966H63.9097V295.951H62.8533V294.935H63.9097V294.392C63.9097 293.882 64.0606 293.493 64.3625 293.225C64.671 292.956 65.0802 292.822 65.59 292.822C65.8918 292.822 66.2138 292.879 66.5558 292.993L66.3345 293.929C66.1802 293.875 66.0092 293.849 65.8214 293.849C65.4055 293.849 65.1976 294.053 65.1976 294.462ZM68.8302 294.462V294.935H70.1079V295.951H68.8302V299.966H67.5423V295.951H66.4859V294.935H67.5423V294.392C67.5423 293.882 67.6932 293.493 67.9951 293.225C68.3036 292.956 68.7128 292.822 69.2225 292.822C69.5244 292.822 69.8463 292.879 70.1884 292.993L69.9671 293.929C69.8128 293.875 69.6418 293.849 69.454 293.849C69.0381 293.849 68.8302 294.053 68.8302 294.462Z" fill="#151D51"/>
<circle cx="30.79" cy="290.348" r="8.94337" fill="#ED5F59"/>
<rect x="29.9516" y="286.435" width="1.77004" height="5.31012" rx="0.885021" fill="white"/>
<rect x="29.9516" y="292.583" width="1.67688" height="1.67688" rx="0.838441" fill="white"/>
<rect x="142.867" y="279.466" width="51" height="22" rx="11" fill="#6C1DA0"/>
<path d="M157.87 288.137C158.997 288.137 159.702 288.849 159.702 289.874C159.702 290.93 158.982 291.619 157.839 291.619H156.673V293.614H155.672V288.137H157.87ZM157.737 290.719C158.34 290.719 158.645 290.382 158.645 289.874C158.645 289.365 158.317 289.036 157.761 289.036H156.673V290.719H157.737ZM160.239 293.614V289.702H161.147L161.24 290.257H161.303C161.546 289.866 161.812 289.623 162.469 289.623H162.751V290.625C162.61 290.602 162.469 290.594 162.328 290.594C161.467 290.594 161.24 291.228 161.24 291.791V293.614H160.239ZM164.977 293.693C163.811 293.693 162.911 292.855 162.911 291.65C162.911 290.445 163.803 289.623 164.977 289.623C166.151 289.623 167.043 290.453 167.043 291.65C167.043 292.863 166.158 293.693 164.977 293.693ZM164.977 292.824C165.626 292.824 166.049 292.308 166.049 291.65C166.049 291.001 165.618 290.492 164.977 290.492C164.335 290.492 163.912 291.001 163.912 291.65C163.912 292.308 164.335 292.824 164.977 292.824ZM169.267 293.693C168.171 293.693 168.046 292.981 168.046 292.55V290.492H167.209V289.702H167.475C167.952 289.702 168.14 289.529 168.14 289.107V288.637H169.048V289.702H170.073V290.492H169.048V292.417C169.048 292.636 169.102 292.902 169.572 292.902C169.689 292.902 169.838 292.879 169.955 292.847V293.607C169.783 293.646 169.548 293.693 169.267 293.693ZM173.111 292.378H174.074C173.917 293.184 173.244 293.693 172.25 293.693C171.084 293.693 170.239 292.902 170.239 291.697C170.239 290.406 171.131 289.623 172.211 289.623C173.174 289.623 174.066 290.234 174.066 291.635C174.066 291.728 174.058 291.815 174.05 291.924H171.233C171.272 292.488 171.64 292.894 172.25 292.894C172.689 292.894 173.002 292.714 173.111 292.378ZM172.211 290.422C171.671 290.422 171.311 290.782 171.241 291.251H173.111C173.088 290.766 172.728 290.422 172.211 290.422ZM176.546 293.693C175.325 293.693 174.496 292.855 174.496 291.674C174.496 290.445 175.388 289.623 176.53 289.623C177.438 289.623 178.299 290.109 178.424 291.134H177.422C177.336 290.774 177 290.492 176.53 290.492C175.936 290.492 175.497 290.977 175.497 291.674C175.497 292.362 175.904 292.824 176.546 292.824C177 292.824 177.305 292.621 177.43 292.261H178.44C178.307 293.137 177.563 293.693 176.546 293.693ZM180.668 293.693C179.573 293.693 179.447 292.981 179.447 292.55V290.492H178.61V289.702H178.876C179.353 289.702 179.541 289.529 179.541 289.107V288.637H180.449V289.702H181.474V290.492H180.449V292.417C180.449 292.636 180.504 292.902 180.973 292.902C181.091 292.902 181.239 292.879 181.357 292.847V293.607C181.185 293.646 180.95 293.693 180.668 293.693Z" fill="white"/>
<circle cx="2.23584" cy="2.23584" r="2.23584" transform="matrix(-1 0 0 1 100.657 12.5439)" fill="white"/>
<circle opacity="0.3" cx="2.23584" cy="2.23584" r="2.23584" transform="matrix(-1 0 0 1 111.836 12.5439)" fill="white"/>
<g clip-path="url(#clip1_0_551)">
<rect x="7.86719" y="27.4658" width="194" height="164" rx="5.5896" fill="#483FDD"/>
<path d="M89.0941 42.4354H92.2621V59.2354H89.0941V52.1554H82.0381V59.2354H78.8701V42.4354H82.0381V49.2994H89.0941V42.4354ZM96.4699 45.6994C95.9579 45.6994 95.5099 45.5154 95.1259 45.1474C94.7579 44.7794 94.5739 44.3474 94.5739 43.8514C94.5739 43.3234 94.7579 42.8834 95.1259 42.5314C95.5099 42.1634 95.9579 41.9794 96.4699 41.9794C96.9819 41.9794 97.4139 42.1634 97.7659 42.5314C98.1339 42.8834 98.3179 43.3234 98.3179 43.8514C98.3179 44.3474 98.1339 44.7794 97.7659 45.1474C97.3979 45.5154 96.9659 45.6994 96.4699 45.6994ZM94.9339 59.2354V47.2354H98.0059V59.2354H94.9339ZM108.868 42.1954H111.94V59.2354H109.444L109.18 57.8194H108.964C108.132 58.9234 106.94 59.4754 105.388 59.4754C103.756 59.4754 102.404 58.8994 101.332 57.7474C100.276 56.5954 99.7484 55.0834 99.7484 53.2114C99.7484 51.3074 100.284 49.7954 101.356 48.6754C102.428 47.5554 103.772 46.9954 105.388 46.9954C106.892 46.9954 108.052 47.4514 108.868 48.3634V42.1954ZM103.66 55.8274C104.22 56.4834 104.956 56.8114 105.868 56.8114C106.78 56.8114 107.508 56.4834 108.052 55.8274C108.596 55.1714 108.868 54.2994 108.868 53.2114C108.868 52.1554 108.596 51.2994 108.052 50.6434C107.508 49.9874 106.78 49.6594 105.868 49.6594C104.956 49.6594 104.22 49.9874 103.66 50.6434C103.1 51.2994 102.82 52.1554 102.82 53.2114C102.82 54.2834 103.1 55.1554 103.66 55.8274ZM122.471 55.4434H125.423C125.183 56.6914 124.567 57.6754 123.575 58.3954C122.599 59.1154 121.351 59.4754 119.831 59.4754C118.023 59.4754 116.543 58.9154 115.391 57.7954C114.239 56.6594 113.663 55.1794 113.663 53.3554C113.663 51.4354 114.239 49.8994 115.391 48.7474C116.559 47.5794 117.999 46.9954 119.711 46.9954C121.311 46.9954 122.655 47.5154 123.743 48.5554C124.847 49.5954 125.399 51.1314 125.399 53.1634C125.399 53.3074 125.383 53.6034 125.351 54.0514H116.711C116.775 54.9314 117.079 55.6514 117.623 56.2114C118.183 56.7554 118.919 57.0274 119.831 57.0274C121.255 57.0274 122.135 56.4994 122.471 55.4434ZM119.711 49.4434C118.911 49.4434 118.239 49.6834 117.695 50.1634C117.167 50.6434 116.847 51.2514 116.735 51.9874H122.471C122.439 51.2354 122.167 50.6274 121.655 50.1634C121.143 49.6834 120.495 49.4434 119.711 49.4434ZM46.5306 82.3854C46.1406 82.3854 45.7356 82.3304 45.3156 82.2204V80.7954C45.6056 80.8554 45.8656 80.8854 46.0956 80.8854C46.9256 80.8854 47.4756 80.5504 47.7456 79.8804L48.0006 79.2354H47.4006L44.5356 71.7354H46.5156L48.5556 77.2704H48.6756L50.5806 71.7354H52.5606L49.5306 80.1654C49.0306 81.6454 48.0306 82.3854 46.5306 82.3854ZM56.3639 79.3854C55.2339 79.3854 54.2889 79.0204 53.5289 78.2904C52.7789 77.5504 52.4039 76.6104 52.4039 75.4704C52.4039 74.3304 52.7789 73.4004 53.5289 72.6804C54.2789 71.9504 55.2239 71.5854 56.3639 71.5854C57.5039 71.5854 58.4489 71.9504 59.1989 72.6804C59.9489 73.4004 60.3239 74.3304 60.3239 75.4704C60.3239 76.6204 59.9489 77.5604 59.1989 78.2904C58.4489 79.0204 57.5039 79.3854 56.3639 79.3854ZM56.3639 77.7204C56.9739 77.7204 57.4689 77.5054 57.8489 77.0754C58.2289 76.6454 58.4189 76.1104 58.4189 75.4704C58.4189 74.8404 58.2289 74.3154 57.8489 73.8954C57.4689 73.4654 56.9739 73.2504 56.3639 73.2504C55.7539 73.2504 55.2589 73.4654 54.8789 73.8954C54.5089 74.3154 54.3239 74.8404 54.3239 75.4704C54.3239 76.1104 54.5139 76.6454 54.8939 77.0754C55.2739 77.5054 55.7639 77.7204 56.3639 77.7204ZM68.3615 71.7354V79.2354H66.6065L66.4415 78.3504H66.3215C65.7915 79.0404 65.0565 79.3854 64.1165 79.3854C63.2165 79.3854 62.5015 79.1104 61.9715 78.5604C61.4515 78.0104 61.1915 77.2504 61.1915 76.2804V71.7354H63.1115V75.8904C63.1115 76.4804 63.2615 76.9354 63.5615 77.2554C63.8615 77.5654 64.2515 77.7204 64.7315 77.7204C65.2215 77.7204 65.6265 77.5604 65.9465 77.2404C66.2765 76.9104 66.4415 76.4304 66.4415 75.8004V71.7354H68.3615ZM69.5787 79.2354V71.7354H71.3187L71.4987 72.8004H71.6187C71.8787 72.3804 72.1687 72.0754 72.4887 71.8854C72.8087 71.6854 73.2637 71.5854 73.8537 71.5854H74.3937V73.5054C74.1537 73.4654 73.8837 73.4454 73.5837 73.4454C72.8337 73.4454 72.2987 73.6704 71.9787 74.1204C71.6587 74.5604 71.4987 75.1004 71.4987 75.7404V79.2354H69.5787ZM78.5454 79.2354V68.5854H80.4654V79.2354H78.5454ZM85.3213 79.3854C84.1913 79.3854 83.2463 79.0204 82.4863 78.2904C81.7363 77.5504 81.3613 76.6104 81.3613 75.4704C81.3613 74.3304 81.7363 73.4004 82.4863 72.6804C83.2363 71.9504 84.1813 71.5854 85.3213 71.5854C86.4613 71.5854 87.4063 71.9504 88.1563 72.6804C88.9063 73.4004 89.2813 74.3304 89.2813 75.4704C89.2813 76.6204 88.9063 77.5604 88.1563 78.2904C87.4063 79.0204 86.4613 79.3854 85.3213 79.3854ZM85.3213 77.7204C85.9313 77.7204 86.4263 77.5054 86.8063 77.0754C87.1863 76.6454 87.3763 76.1104 87.3763 75.4704C87.3763 74.8404 87.1863 74.3154 86.8063 73.8954C86.4263 73.4654 85.9313 73.2504 85.3213 73.2504C84.7113 73.2504 84.2163 73.4654 83.8363 73.8954C83.4663 74.3154 83.2813 74.8404 83.2813 75.4704C83.2813 76.1104 83.4713 76.6454 83.8513 77.0754C84.2313 77.5054 84.7213 77.7204 85.3213 77.7204ZM93.8103 79.3854C92.6403 79.3854 91.6903 79.0254 90.9603 78.3054C90.2403 77.5854 89.8803 76.6554 89.8803 75.5154C89.8803 74.3554 90.2503 73.4104 90.9903 72.6804C91.7403 71.9504 92.6703 71.5854 93.7803 71.5854C94.7103 71.5854 95.5203 71.8354 96.2103 72.3354C96.9003 72.8354 97.3003 73.5504 97.4103 74.4804H95.4903C95.4003 74.1204 95.2003 73.8254 94.8903 73.5954C94.5903 73.3654 94.2203 73.2504 93.7803 73.2504C93.2103 73.2504 92.7353 73.4654 92.3553 73.8954C91.9853 74.3154 91.8003 74.8554 91.8003 75.5154C91.8003 76.1754 91.9803 76.7104 92.3403 77.1204C92.7103 77.5204 93.2003 77.7204 93.8103 77.7204C94.6903 77.7204 95.2553 77.3604 95.5053 76.6404H97.4403C97.3103 77.4804 96.9153 78.1504 96.2553 78.6504C95.6053 79.1404 94.7903 79.3854 93.8103 79.3854ZM105.247 77.7954H105.427V79.2354H104.617C103.827 79.2354 103.322 78.9354 103.102 78.3354C102.552 79.0354 101.727 79.3854 100.627 79.3854C99.8267 79.3854 99.1817 79.2004 98.6917 78.8304C98.2117 78.4504 97.9717 77.9004 97.9717 77.1804C97.9717 76.5004 98.1967 75.9704 98.6467 75.5904C99.1067 75.2004 99.7067 74.9704 100.447 74.9004L102.787 74.6604V74.3454C102.787 73.9454 102.672 73.6404 102.442 73.4304C102.212 73.2204 101.907 73.1154 101.527 73.1154C100.757 73.1154 100.307 73.4904 100.177 74.2404H98.2567C98.3367 73.4404 98.6667 72.8004 99.2467 72.3204C99.8267 71.8304 100.587 71.5854 101.527 71.5854C102.467 71.5854 103.232 71.8304 103.822 72.3204C104.412 72.8004 104.707 73.5204 104.707 74.4804V77.2254C104.707 77.6054 104.887 77.7954 105.247 77.7954ZM102.787 76.3404V75.9804L101.107 76.1604C100.297 76.2504 99.8917 76.5654 99.8917 77.1054C99.8917 77.6454 100.247 77.9154 100.957 77.9154C101.437 77.9154 101.862 77.7904 102.232 77.5404C102.602 77.2804 102.787 76.8804 102.787 76.3404ZM109.097 79.3854C107.537 79.3854 106.757 78.6554 106.757 77.1954V73.2504H105.152V71.7354H105.662C106.122 71.7354 106.447 71.6504 106.637 71.4804C106.837 71.3004 106.937 71.0054 106.937 70.5954V69.6954H108.677V71.7354H110.642V73.2504H108.677V76.9404C108.677 77.1104 108.692 77.2554 108.722 77.3754C108.762 77.4954 108.862 77.6104 109.022 77.7204C109.182 77.8204 109.402 77.8704 109.682 77.8704C109.912 77.8704 110.157 77.8354 110.417 77.7654V79.2204C109.937 79.3304 109.497 79.3854 109.097 79.3854ZM112.286 70.7754C111.966 70.7754 111.686 70.6604 111.446 70.4304C111.216 70.2004 111.101 69.9304 111.101 69.6204C111.101 69.2904 111.216 69.0154 111.446 68.7954C111.686 68.5654 111.966 68.4504 112.286 68.4504C112.606 68.4504 112.876 68.5654 113.096 68.7954C113.326 69.0154 113.441 69.2904 113.441 69.6204C113.441 69.9304 113.326 70.2004 113.096 70.4304C112.866 70.6604 112.596 70.7754 112.286 70.7754ZM111.326 79.2354V71.7354H113.246V79.2354H111.326ZM118.102 79.3854C116.972 79.3854 116.027 79.0204 115.267 78.2904C114.517 77.5504 114.142 76.6104 114.142 75.4704C114.142 74.3304 114.517 73.4004 115.267 72.6804C116.017 71.9504 116.962 71.5854 118.102 71.5854C119.242 71.5854 120.187 71.9504 120.937 72.6804C121.687 73.4004 122.062 74.3304 122.062 75.4704C122.062 76.6204 121.687 77.5604 120.937 78.2904C120.187 79.0204 119.242 79.3854 118.102 79.3854ZM118.102 77.7204C118.712 77.7204 119.207 77.5054 119.587 77.0754C119.967 76.6454 120.157 76.1104 120.157 75.4704C120.157 74.8404 119.967 74.3154 119.587 73.8954C119.207 73.4654 118.712 73.2504 118.102 73.2504C117.492 73.2504 116.997 73.4654 116.617 73.8954C116.247 74.3154 116.062 74.8404 116.062 75.4704C116.062 76.1104 116.252 76.6454 116.632 77.0754C117.012 77.5054 117.502 77.7204 118.102 77.7204ZM122.974 79.2354V71.7354H124.729L124.894 72.6204H125.014C125.544 71.9304 126.279 71.5854 127.219 71.5854C128.119 71.5854 128.829 71.8604 129.349 72.4104C129.879 72.9604 130.144 73.7204 130.144 74.6904V79.2354H128.224V75.0804C128.224 74.4904 128.074 74.0404 127.774 73.7304C127.474 73.4104 127.089 73.2504 126.619 73.2504C126.129 73.2504 125.719 73.4154 125.389 73.7454C125.059 74.0654 124.894 74.5404 124.894 75.1704V79.2354H122.974ZM137.795 71.0304V71.7354H139.7V73.2504H137.795V79.2354H135.875V73.2504H134.3V71.7354H135.875V70.9254C135.875 70.1654 136.1 69.5854 136.55 69.1854C137.01 68.7854 137.62 68.5854 138.38 68.5854C138.83 68.5854 139.31 68.6704 139.82 68.8404L139.49 70.2354C139.26 70.1554 139.005 70.1154 138.725 70.1154C138.105 70.1154 137.795 70.4204 137.795 71.0304ZM140.254 79.2354V71.7354H141.994L142.174 72.8004H142.294C142.554 72.3804 142.844 72.0754 143.164 71.8854C143.484 71.6854 143.939 71.5854 144.529 71.5854H145.069V73.5054C144.829 73.4654 144.559 73.4454 144.259 73.4454C143.509 73.4454 142.974 73.6704 142.654 74.1204C142.334 74.5604 142.174 75.1004 142.174 75.7404V79.2354H140.254ZM149.139 79.3854C148.009 79.3854 147.064 79.0204 146.304 78.2904C145.554 77.5504 145.179 76.6104 145.179 75.4704C145.179 74.3304 145.554 73.4004 146.304 72.6804C147.054 71.9504 147.999 71.5854 149.139 71.5854C150.279 71.5854 151.224 71.9504 151.974 72.6804C152.724 73.4004 153.099 74.3304 153.099 75.4704C153.099 76.6204 152.724 77.5604 151.974 78.2904C151.224 79.0204 150.279 79.3854 149.139 79.3854ZM149.139 77.7204C149.749 77.7204 150.244 77.5054 150.624 77.0754C151.004 76.6454 151.194 76.1104 151.194 75.4704C151.194 74.8404 151.004 74.3154 150.624 73.8954C150.244 73.4654 149.749 73.2504 149.139 73.2504C148.529 73.2504 148.034 73.4654 147.654 73.8954C147.284 74.3154 147.099 74.8404 147.099 75.4704C147.099 76.1104 147.289 76.6454 147.669 77.0754C148.049 77.5054 148.539 77.7204 149.139 77.7204ZM154.011 79.2354V71.7354H155.766L155.931 72.6204H156.051C156.551 71.9304 157.236 71.5854 158.106 71.5854C159.046 71.5854 159.701 71.9804 160.071 72.7704H160.191C160.741 71.9804 161.521 71.5854 162.531 71.5854C163.321 71.5854 163.941 71.8204 164.391 72.2904C164.841 72.7604 165.066 73.4404 165.066 74.3304V79.2354H163.146V74.6904C163.146 74.2304 163.026 73.8754 162.786 73.6254C162.546 73.3754 162.236 73.2504 161.856 73.2504C161.446 73.2504 161.116 73.3904 160.866 73.6704C160.616 73.9504 160.491 74.3254 160.491 74.7954V79.2354H158.571V74.7504C158.571 74.2704 158.451 73.9004 158.211 73.6404C157.981 73.3804 157.676 73.2504 157.296 73.2504C156.926 73.2504 156.606 73.3854 156.336 73.6554C156.066 73.9154 155.931 74.2904 155.931 74.7804V79.2354H154.011ZM80.9198 99.3854C79.3598 99.3854 78.5798 98.6554 78.5798 97.1954V93.2504H76.9748V91.7354H77.4848C77.9448 91.7354 78.2698 91.6504 78.4598 91.4804C78.6598 91.3004 78.7598 91.0054 78.7598 90.5954V89.6954H80.4998V91.7354H82.4648V93.2504H80.4998V96.9404C80.4998 97.1104 80.5148 97.2554 80.5448 97.3754C80.5848 97.4954 80.6848 97.6104 80.8448 97.7204C81.0048 97.8204 81.2248 97.8704 81.5048 97.8704C81.7348 97.8704 81.9798 97.8354 82.2398 97.7654V99.2204C81.7598 99.3304 81.3198 99.3854 80.9198 99.3854ZM83.1492 99.2354V91.7354H84.8892L85.0692 92.8004H85.1892C85.4492 92.3804 85.7392 92.0754 86.0592 91.8854C86.3792 91.6854 86.8342 91.5854 87.4242 91.5854H87.9642V93.5054C87.7242 93.4654 87.4542 93.4454 87.1542 93.4454C86.4042 93.4454 85.8692 93.6704 85.5492 94.1204C85.2292 94.5604 85.0692 95.1004 85.0692 95.7404V99.2354H83.1492ZM95.2734 97.7954H95.4534V99.2354H94.6434C93.8534 99.2354 93.3484 98.9354 93.1284 98.3354C92.5784 99.0354 91.7534 99.3854 90.6534 99.3854C89.8534 99.3854 89.2084 99.2004 88.7184 98.8304C88.2384 98.4504 87.9984 97.9004 87.9984 97.1804C87.9984 96.5004 88.2234 95.9704 88.6734 95.5904C89.1334 95.2004 89.7334 94.9704 90.4734 94.9004L92.8134 94.6604V94.3454C92.8134 93.9454 92.6984 93.6404 92.4684 93.4304C92.2384 93.2204 91.9334 93.1154 91.5534 93.1154C90.7834 93.1154 90.3334 93.4904 90.2034 94.2404H88.2834C88.3634 93.4404 88.6934 92.8004 89.2734 92.3204C89.8534 91.8304 90.6134 91.5854 91.5534 91.5854C92.4934 91.5854 93.2584 91.8304 93.8484 92.3204C94.4384 92.8004 94.7334 93.5204 94.7334 94.4804V97.2254C94.7334 97.6054 94.9134 97.7954 95.2734 97.7954ZM92.8134 96.3404V95.9804L91.1334 96.1604C90.3234 96.2504 89.9184 96.5654 89.9184 97.1054C89.9184 97.6454 90.2734 97.9154 90.9834 97.9154C91.4634 97.9154 91.8884 97.7904 92.2584 97.5404C92.6284 97.2804 92.8134 96.8804 92.8134 96.3404ZM99.6006 99.3854C98.4306 99.3854 97.4806 99.0254 96.7506 98.3054C96.0306 97.5854 95.6706 96.6554 95.6706 95.5154C95.6706 94.3554 96.0406 93.4104 96.7806 92.6804C97.5306 91.9504 98.4606 91.5854 99.5706 91.5854C100.501 91.5854 101.311 91.8354 102.001 92.3354C102.691 92.8354 103.091 93.5504 103.201 94.4804H101.281C101.191 94.1204 100.991 93.8254 100.681 93.5954C100.381 93.3654 100.011 93.2504 99.5706 93.2504C99.0006 93.2504 98.5256 93.4654 98.1456 93.8954C97.7756 94.3154 97.5906 94.8554 97.5906 95.5154C97.5906 96.1754 97.7706 96.7104 98.1306 97.1204C98.5006 97.5204 98.9906 97.7204 99.6006 97.7204C100.481 97.7204 101.046 97.3604 101.296 96.6404H103.231C103.101 97.4804 102.706 98.1504 102.046 98.6504C101.396 99.1404 100.581 99.3854 99.6006 99.3854ZM111.113 91.7354L108.053 94.7204L111.113 99.2354H108.998L106.763 95.9804L105.983 96.7304V99.2354H104.063V88.5854H105.983V94.3304H106.103L108.803 91.7354H111.113ZM112.56 90.7754C112.24 90.7754 111.96 90.6604 111.72 90.4304C111.49 90.2004 111.375 89.9304 111.375 89.6204C111.375 89.2904 111.49 89.0154 111.72 88.7954C111.96 88.5654 112.24 88.4504 112.56 88.4504C112.88 88.4504 113.15 88.5654 113.37 88.7954C113.6 89.0154 113.715 89.2904 113.715 89.6204C113.715 89.9304 113.6 90.2004 113.37 90.4304C113.14 90.6604 112.87 90.7754 112.56 90.7754ZM111.6 99.2354V91.7354H113.52V99.2354H111.6ZM114.714 99.2354V91.7354H116.469L116.634 92.6204H116.754C117.284 91.9304 118.019 91.5854 118.959 91.5854C119.859 91.5854 120.569 91.8604 121.089 92.4104C121.619 92.9604 121.884 93.7204 121.884 94.6904V99.2354H119.964V95.0804C119.964 94.4904 119.814 94.0404 119.514 93.7304C119.214 93.4104 118.829 93.2504 118.359 93.2504C117.869 93.2504 117.459 93.4154 117.129 93.7454C116.799 94.0654 116.634 94.5404 116.634 95.1704V99.2354H114.714ZM130.069 91.9454C129.779 92.2454 129.374 92.5204 128.854 92.7704C129.174 93.1804 129.334 93.6504 129.334 94.1804C129.334 94.9604 129.039 95.5754 128.449 96.0254C127.859 96.4754 127.104 96.7004 126.184 96.7004C125.734 96.7004 125.314 96.6454 124.924 96.5354C124.684 96.6554 124.564 96.8204 124.564 97.0304C124.564 97.4104 124.894 97.6004 125.554 97.6004H127.024C127.904 97.6004 128.579 97.8004 129.049 98.2004C129.519 98.5904 129.754 99.1304 129.754 99.8204C129.754 100.62 129.439 101.245 128.809 101.695C128.179 102.155 127.319 102.385 126.229 102.385C125.109 102.385 124.239 102.145 123.619 101.665C123.009 101.195 122.664 100.595 122.584 99.8654L123.724 98.8604C123.154 98.5504 122.869 98.0904 122.869 97.4804C122.869 96.8704 123.204 96.3804 123.874 96.0104C123.284 95.5504 122.989 94.9404 122.989 94.1804C122.989 93.4304 123.269 92.8104 123.829 92.3204C124.399 91.8304 125.154 91.5854 126.094 91.5854C126.754 91.5854 127.334 91.7104 127.834 91.9604C128.364 91.6904 128.794 91.3354 129.124 90.8954L130.069 91.9454ZM126.184 95.3054C126.584 95.3054 126.904 95.2004 127.144 94.9904C127.384 94.7704 127.504 94.4904 127.504 94.1504C127.504 93.8004 127.384 93.5154 127.144 93.2954C126.914 93.0754 126.594 92.9654 126.184 92.9654C125.774 92.9654 125.444 93.0754 125.194 93.2954C124.944 93.5154 124.819 93.8004 124.819 94.1504C124.819 94.4904 124.944 94.7704 125.194 94.9904C125.444 95.2004 125.774 95.3054 126.184 95.3054ZM127.924 99.9254C127.924 99.6354 127.814 99.4254 127.594 99.2954C127.374 99.1654 127.104 99.1004 126.784 99.1004H125.419L124.429 99.9404C124.519 100.23 124.714 100.47 125.014 100.66C125.324 100.85 125.734 100.945 126.244 100.945C126.734 100.945 127.134 100.855 127.444 100.675C127.764 100.505 127.924 100.255 127.924 99.9254ZM131.514 99.3104C131.204 99.3104 130.934 99.2004 130.704 98.9804C130.484 98.7504 130.374 98.4804 130.374 98.1704C130.374 97.8504 130.484 97.5804 130.704 97.3604C130.934 97.1304 131.204 97.0154 131.514 97.0154C131.834 97.0154 132.104 97.1304 132.324 97.3604C132.544 97.5804 132.654 97.8504 132.654 98.1704C132.654 98.4804 132.544 98.7504 132.324 98.9804C132.104 99.2004 131.834 99.3104 131.514 99.3104Z" fill="white"/>
<rect x="29.043" y="114.483" width="133.715" height="112.816" rx="5.80528" transform="rotate(-2.66776 29.043 114.483)" fill="#3931C4"/>
<rect x="51.6289" y="139.852" width="133.715" height="112.816" rx="5.80528" transform="rotate(1.22915 51.6289 139.852)" fill="#5C53EB"/>
<rect x="47.2266" y="104.145" width="133.715" height="112.816" rx="5.80528" transform="rotate(8.25431 47.2266 104.145)" fill="white"/>
<rect x="54.1758" y="112.642" width="117.549" height="98.0301" transform="rotate(8.25431 54.1758 112.642)" fill="#E7EBF5"/>
<mask id="mask0_0_551" style="mask-type:alpha" maskUnits="userSpaceOnUse" x="40" y="112" width="131" height="115">
<rect x="54.1758" y="112.643" width="117.549" height="98.0301" transform="rotate(8.25431 54.1758 112.643)" fill="#E7EBF5"/>
</mask>
<g mask="url(#mask0_0_551)">
<rect x="126.285" y="131.793" width="33.959" height="85.1453" transform="rotate(29.2799 126.285 131.793)" fill="#5CD6C0"/>
<path d="M118.862 165.449C121.834 164.739 128.832 163.911 130.309 163.749C133.028 163.491 138.795 163.517 140.115 165.683C141.765 168.39 135.433 174.74 134.008 178.693C132.583 182.647 125.717 183.945 123.748 181.454C121.778 178.964 116.921 177.033 114.83 175.464C112.739 173.896 115.89 166.158 118.862 165.449Z" fill="#5579F0"/>
<path d="M75.3743 155.321C76.6401 150.803 99.2647 116.245 110.419 99.5307L113.3 87.6821L79.6982 62.5048C53.2058 109.164 -0.564243 203.388 -3.70536 207.013C-7.63177 211.543 6.00793 223.943 8.01417 225.662C10.0204 227.381 37.1007 230.289 38.3677 228.029C39.6347 225.77 52.7525 200.256 56.0215 196.545C59.2904 192.834 73.792 160.968 75.3743 155.321Z" fill="#5579F0" stroke="white" stroke-width="3.67668"/>
<path d="M96.2305 120.621C97.2208 121.176 114.564 130.901 123.112 135.694" stroke="white" stroke-width="4.0637"/>
<path d="M165.125 134.144C166.115 134.7 183.459 144.424 192.007 149.217" stroke="white" stroke-width="4.0637"/>
<path d="M76.7619 155.339C77.7523 155.895 95.0956 165.619 103.643 170.412" stroke="white" stroke-width="4.0637"/>
<path d="M141.59 176.112C142.58 176.667 159.924 186.392 168.471 191.185" stroke="white" stroke-width="4.0637"/>
<path d="M60.543 188.784C61.4688 189.303 77.6821 198.394 85.673 202.875" stroke="white" stroke-width="4.0637"/>
<path d="M144.125 98.6313L58.9309 250.57" stroke="white" stroke-width="4.0637"/>
<path d="M175.074 115.984L89.8801 267.923" stroke="white" stroke-width="4.0637"/>
<path d="M98.8499 193.219C97.202 191.598 100.346 188.479 102.717 186.322L108.377 189.495C110.322 190.586 105.699 194.27 103.555 193.533C101.412 192.796 100.498 194.84 98.8499 193.219Z" fill="#5579F0"/>
<path d="M126.008 131.638L156.595 148.789" stroke="white" stroke-width="2.90264"/>
<path d="M112.477 154.795L131.013 158.566L146.945 165.35" stroke="white" stroke-width="2.90264"/>
<path d="M100.992 174.301L116.204 184.979L128.079 198.998" stroke="white" stroke-width="2.90264"/>
<path d="M88.7569 196.129L103.968 206.807L121.847 210.121" stroke="white" stroke-width="2.90264"/>
</g>
<path d="M104.249 141.402C103.985 149.462 96.8618 167.268 88.8011 167.005C80.7404 166.741 74.7948 148.508 75.0582 140.448C75.3216 132.387 82.0696 126.066 90.1303 126.329C98.191 126.593 104.512 133.341 104.249 141.402Z" fill="#DF723A"/>
<circle cx="89.6005" cy="140.995" r="7.68769" transform="rotate(1.87168 89.6005 140.995)" fill="white"/>
<path d="M80.09 145.478C85.5139 145.542 90.0628 141.231 91.0862 135.469C91.3147 134.183 90.2412 133.102 88.9337 133.087L71.4299 132.881C70.1224 132.866 69.0332 133.921 69.2428 135.213C70.1813 140.998 74.6661 145.415 80.09 145.478Z" fill="#151D51"/>
<path d="M99.4338 145.732C104.858 145.796 109.407 141.485 110.43 135.723C110.658 134.437 109.585 133.356 108.277 133.341L90.7736 133.135C89.4661 133.12 88.377 134.175 88.5865 135.467C89.5251 141.252 94.0099 145.669 99.4338 145.732Z" fill="#151D51"/>
<path d="M38.8421 125.848C31.7946 128.548 19.207 133.348 19.207 148.348C19.207 169.348 57.7807 170.848 84.207 170.848" stroke="#5CD6C0" stroke-width="5" stroke-linecap="round" stroke-dasharray="10 10"/>
</g>
<mask id="mask1_0_551" style="mask-type:alpha" maskUnits="userSpaceOnUse" x="15" y="202" width="33" height="32">
<path fill-rule="evenodd" clip-rule="evenodd" d="M47.127 202.649H15.8252V233.951H47.127V202.649Z" fill="white"/>
</mask>
<g mask="url(#mask1_0_551)">
<path fill-rule="evenodd" clip-rule="evenodd" d="M15.8252 218.3C15.8252 226.944 22.8323 233.951 31.476 233.951C40.1198 233.951 47.127 226.944 47.127 218.3C47.127 209.656 40.1198 202.649 31.476 202.649C22.8323 202.649 15.8252 209.656 15.8252 218.3Z" fill="#483FDD"/>
<path fill-rule="evenodd" clip-rule="evenodd" d="M27.5943 208.519C26.2266 208.519 25.1179 209.627 25.1179 210.995V225.606C25.1179 226.973 26.2266 228.082 27.5943 228.082H35.5188C36.8865 228.082 37.9952 226.973 37.9952 225.606V210.995C37.9952 209.627 36.8865 208.519 35.5188 208.519H27.5943ZM35.9865 210.692H27.2916V223.735H35.9865V210.692Z" fill="#5CD6C0"/>
<path d="M31.573 227.092C32.2568 227.092 32.8112 226.537 32.8112 225.853C32.8112 225.169 32.2568 224.615 31.573 224.615C30.8891 224.615 30.3348 225.169 30.3348 225.853C30.3348 226.537 30.8891 227.092 31.573 227.092Z" fill="white"/>
</g>
<path d="M20.0657 240.691C21.0197 240.691 21.7649 240.971 22.3015 241.531C22.8441 242.086 23.1154 242.849 23.1154 243.821C23.1154 244.787 22.8441 245.55 22.3015 246.11C21.7649 246.671 21.0197 246.951 20.0657 246.951H17.8746V240.691H20.0657ZM20.021 245.896C20.653 245.896 21.124 245.705 21.434 245.323C21.75 244.936 21.908 244.423 21.908 243.785C21.908 243.153 21.75 242.655 21.434 242.292C21.124 241.928 20.653 241.746 20.021 241.746H19.0551V245.896H20.021ZM27.1335 245.538H28.2336C28.1441 246.003 27.9146 246.37 27.5449 246.638C27.1812 246.906 26.7162 247.041 26.1498 247.041C25.476 247.041 24.9245 246.832 24.4953 246.415C24.066 245.991 23.8513 245.44 23.8513 244.76C23.8513 244.045 24.066 243.472 24.4953 243.043C24.9305 242.608 25.4671 242.39 26.1051 242.39C26.7013 242.39 27.2021 242.584 27.6075 242.971C28.0189 243.359 28.2246 243.931 28.2246 244.688C28.2246 244.742 28.2187 244.852 28.2067 245.019H24.9871C25.011 245.347 25.1243 245.616 25.327 245.824C25.5357 246.027 25.8099 246.128 26.1498 246.128C26.6804 246.128 27.0083 245.932 27.1335 245.538ZM26.1051 243.302C25.8069 243.302 25.5565 243.392 25.3538 243.571C25.1571 243.749 25.0378 243.976 24.9961 244.25H27.1335C27.1216 243.97 27.0203 243.743 26.8295 243.571C26.6387 243.392 26.3972 243.302 26.1051 243.302ZM30.2183 246.951L28.5101 242.479H29.6906L30.8801 245.762H30.9517L32.1232 242.479H33.2948L31.5866 246.951H30.2183ZM34.4617 241.907C34.2709 241.907 34.104 241.839 33.9609 241.701C33.8238 241.564 33.7552 241.403 33.7552 241.218C33.7552 241.022 33.8238 240.858 33.9609 240.727C34.104 240.589 34.2709 240.521 34.4617 240.521C34.6525 240.521 34.8135 240.589 34.9447 240.727C35.0818 240.858 35.1504 241.022 35.1504 241.218C35.1504 241.403 35.0818 241.564 34.9447 241.701C34.8075 241.839 34.6466 241.907 34.4617 241.907ZM33.8894 246.951V242.479H35.0341V246.951H33.8894ZM38.1947 247.041C37.4971 247.041 36.9307 246.826 36.4954 246.397C36.0662 245.967 35.8515 245.413 35.8515 244.733C35.8515 244.042 36.0721 243.478 36.5133 243.043C36.9605 242.608 37.515 242.39 38.1768 242.39C38.7313 242.39 39.2142 242.539 39.6256 242.837C40.037 243.135 40.2755 243.562 40.3411 244.116H39.1963C39.1427 243.901 39.0234 243.726 38.8386 243.588C38.6597 243.451 38.4391 243.383 38.1768 243.383C37.8369 243.383 37.5537 243.511 37.3272 243.767C37.1066 244.018 36.9963 244.34 36.9963 244.733C36.9963 245.127 37.1036 245.446 37.3182 245.69C37.5388 245.929 37.831 246.048 38.1947 246.048C38.7194 246.048 39.0562 245.833 39.2053 245.404H40.359C40.2815 245.905 40.046 246.304 39.6524 246.602C39.2649 246.895 38.779 247.041 38.1947 247.041ZM44.1993 245.538H45.2993C45.2099 246.003 44.9804 246.37 44.6107 246.638C44.247 246.906 43.782 247.041 43.2155 247.041C42.5418 247.041 41.9903 246.832 41.561 246.415C41.1317 245.991 40.9171 245.44 40.9171 244.76C40.9171 244.045 41.1317 243.472 41.561 243.043C41.9963 242.608 42.5329 242.39 43.1708 242.39C43.767 242.39 44.2679 242.584 44.6733 242.971C45.0847 243.359 45.2904 243.931 45.2904 244.688C45.2904 244.742 45.2844 244.852 45.2725 245.019H42.0529C42.0767 245.347 42.19 245.616 42.3927 245.824C42.6014 246.027 42.8757 246.128 43.2155 246.128C43.7462 246.128 44.0741 245.932 44.1993 245.538ZM43.1708 243.302C42.8727 243.302 42.6223 243.392 42.4196 243.571C42.2228 243.749 42.1036 243.976 42.0618 244.25H44.1993C44.1874 243.97 44.086 243.743 43.8952 243.571C43.7044 243.392 43.463 243.302 43.1708 243.302Z" fill="white"/>
<mask id="mask2_0_551" style="mask-type:luminance" maskUnits="userSpaceOnUse" x="64" y="202" width="33" height="32">
<path fill-rule="evenodd" clip-rule="evenodd" d="M96.1093 202.644H64.8075V233.945H96.1093V202.644Z" fill="white"/>
</mask>
<g mask="url(#mask2_0_551)">
<path fill-rule="evenodd" clip-rule="evenodd" d="M80.4583 233.945C89.1021 233.945 96.1093 226.938 96.1093 218.294C96.1093 209.651 89.1021 202.644 80.4583 202.644C71.8146 202.644 64.8075 209.651 64.8075 218.294C64.8075 226.938 71.8146 233.945 80.4583 233.945Z" fill="#483FDD"/>
</g>
<path fill-rule="evenodd" clip-rule="evenodd" d="M64.8081 218.291C64.8081 209.647 71.8152 202.64 80.4589 202.64C89.1026 202.64 96.1099 209.647 96.1099 218.291C96.1099 226.935 89.1026 233.942 80.4589 233.942C71.8152 233.942 64.8081 226.935 64.8081 218.291Z" fill="#483FDD"/>
<path fill-rule="evenodd" clip-rule="evenodd" d="M80.4294 226.118C78.1153 226.118 75.8842 225.207 74.3082 223.618C72.7101 222.008 71.925 219.907 72.0975 217.704C72.4017 213.821 75.7618 210.716 79.9133 210.481C81.2659 210.405 82.6276 210.636 83.8504 211.151C84.2948 211.338 84.4932 211.827 84.2935 212.243C84.094 212.659 83.5717 212.845 83.1276 212.658C82.15 212.247 81.1044 212.069 80.0195 212.13C76.746 212.316 74.0967 214.763 73.8569 217.825C73.7206 219.565 74.3398 221.223 75.6003 222.494C76.8438 223.747 78.6039 224.466 80.4294 224.466C80.5239 224.466 80.618 224.464 80.7115 224.46C81.1945 224.44 81.6096 224.794 81.6306 225.25C81.6514 225.706 81.2739 226.091 80.787 226.111C80.6687 226.116 80.5494 226.118 80.4294 226.118Z" fill="#5CD6C0"/>
<path fill-rule="evenodd" clip-rule="evenodd" d="M84.6844 225C84.431 225 84.18 224.887 84.0077 224.67C83.7038 224.287 83.7604 223.724 84.134 223.412C85.6634 222.137 86.5405 220.247 86.5405 218.227C86.5405 216.95 86.188 215.708 85.5209 214.637C85.2618 214.221 85.3807 213.668 85.7864 213.402C86.1921 213.137 86.7312 213.259 86.9901 213.675C87.8366 215.034 88.2839 216.608 88.2839 218.227C88.2839 220.787 87.1722 223.183 85.2339 224.8C85.0722 224.934 84.8776 225 84.6844 225Z" fill="white"/>
<path fill-rule="evenodd" clip-rule="evenodd" d="M91.356 219.97C90.8928 219.97 90.5174 219.564 90.5174 219.063C90.5174 213.166 86.0832 208.369 80.6331 208.369C79.0311 208.369 77.5031 208.771 76.0915 209.562C75.6807 209.793 75.1743 209.619 74.9611 209.174C74.748 208.729 74.9085 208.182 75.3198 207.951C76.9488 207.038 78.7862 206.555 80.6331 206.555C87.0082 206.555 92.1947 212.166 92.1947 219.063C92.1947 219.564 91.8193 219.97 91.356 219.97Z" fill="#5CD6C0"/>
<path fill-rule="evenodd" clip-rule="evenodd" d="M80.1522 230.031C73.8491 230.031 68.7224 224.766 68.7224 218.294C68.7224 215.548 69.6653 212.877 71.3777 210.772C71.6711 210.412 72.194 210.363 72.5453 210.665C72.8967 210.966 72.9434 211.503 72.6499 211.864C71.1862 213.663 70.3803 215.946 70.3803 218.294C70.3803 223.827 74.7634 228.328 80.1509 228.328C82.9088 228.328 85.5508 227.123 87.4011 225.022C87.7082 224.673 88.2325 224.646 88.572 224.962C88.9115 225.277 88.9379 225.815 88.6307 226.164C86.4668 228.621 83.3765 230.031 80.1522 230.031Z" fill="white"/>
<path fill-rule="evenodd" clip-rule="evenodd" d="M80.1773 213.819C81.2587 213.819 82.1372 214.701 82.139 215.789C82.1406 216.867 81.2685 217.733 80.1819 217.732C79.0976 217.731 78.2272 216.871 78.2263 215.799C78.2251 214.708 79.0998 213.82 80.1773 213.819Z" fill="white"/>
<path fill-rule="evenodd" clip-rule="evenodd" d="M82.5514 221.646C83.0099 221.646 83.3539 221.184 83.2272 220.718C82.8467 219.317 81.6262 218.292 80.1794 218.292C78.7327 218.292 77.5122 219.317 77.1317 220.718C77.005 221.184 77.349 221.646 77.8075 221.646H82.5514Z" fill="white"/>
<ellipse cx="95.8276" cy="207.298" rx="7.45281" ry="7.4528" fill="#ED5F59"/>
<path d="M102.861 207.298C102.861 211.183 99.7122 214.332 95.8276 214.332C91.9431 214.332 88.794 211.183 88.794 207.298C88.794 203.414 91.9431 200.265 95.8276 200.265C99.7122 200.265 102.861 203.414 102.861 207.298Z" stroke="white" stroke-opacity="0.3" stroke-width="0.838441"/>
<rect x="95.1327" y="204.037" width="1.47503" height="4.4251" rx="0.737517" fill="white"/>
<rect x="95.1328" y="209.16" width="1.3974" height="1.3974" rx="0.698701" fill="white"/>
<ellipse cx="42.73" cy="207.298" rx="7.45281" ry="7.4528" fill="#ED5F59"/>
<path d="M49.7636 207.298C49.7636 211.182 46.6146 214.331 42.73 214.331C38.8455 214.331 35.6964 211.182 35.6964 207.298C35.6964 203.413 38.8455 200.264 42.73 200.264C46.6146 200.264 49.7636 203.413 49.7636 207.298Z" stroke="white" stroke-opacity="0.3" stroke-width="0.838441"/>
<rect x="42.0313" y="204.036" width="1.47503" height="4.4251" rx="0.737517" fill="white"/>
<rect x="42.0313" y="209.159" width="1.3974" height="1.3974" rx="0.698701" fill="white"/>
<path d="M66.0297 240.691V246.951H64.8491V240.691H66.0297ZM70.3643 240.601H71.509V246.951H70.5789L70.4805 246.424H70.4C70.09 246.835 69.6458 247.041 69.0675 247.041C68.4593 247.041 67.9555 246.826 67.5561 246.397C67.1625 245.967 66.9658 245.404 66.9658 244.706C66.9658 243.997 67.1655 243.433 67.565 243.016C67.9645 242.599 68.4653 242.39 69.0675 242.39C69.6279 242.39 70.0602 242.56 70.3643 242.9V240.601ZM68.4236 245.681C68.6322 245.926 68.9065 246.048 69.2463 246.048C69.5862 246.048 69.8575 245.926 70.0602 245.681C70.2629 245.437 70.3643 245.112 70.3643 244.706C70.3643 244.313 70.2629 243.994 70.0602 243.749C69.8575 243.505 69.5862 243.383 69.2463 243.383C68.9065 243.383 68.6322 243.505 68.4236 243.749C68.2149 243.994 68.1105 244.313 68.1105 244.706C68.1105 245.106 68.2149 245.431 68.4236 245.681ZM75.6103 245.538H76.7104C76.6209 246.003 76.3914 246.37 76.0217 246.638C75.658 246.906 75.193 247.041 74.6266 247.041C73.9528 247.041 73.4013 246.832 72.972 246.415C72.5427 245.991 72.3281 245.44 72.3281 244.76C72.3281 244.045 72.5427 243.472 72.972 243.043C73.4073 242.608 73.9439 242.39 74.5818 242.39C75.1781 242.39 75.6789 242.584 76.0843 242.971C76.4957 243.359 76.7014 243.931 76.7014 244.688C76.7014 244.742 76.6955 244.852 76.6835 245.019H73.4639C73.4878 245.347 73.601 245.616 73.8038 245.824C74.0124 246.027 74.2867 246.128 74.6266 246.128C75.1572 246.128 75.4851 245.932 75.6103 245.538ZM74.5818 243.302C74.2837 243.302 74.0333 243.392 73.8306 243.571C73.6338 243.749 73.5146 243.976 73.4729 244.25H75.6103C75.5984 243.97 75.497 243.743 75.3062 243.571C75.1155 243.392 74.874 243.302 74.5818 243.302ZM77.5713 246.951V242.479H78.6177L78.716 243.007H78.7876C79.1036 242.596 79.5418 242.39 80.1023 242.39C80.6389 242.39 81.0622 242.554 81.3722 242.882C81.6882 243.21 81.8462 243.663 81.8462 244.241V246.951H80.7015V244.474C80.7015 244.122 80.612 243.854 80.4332 243.669C80.2543 243.478 80.0248 243.383 79.7445 243.383C79.4524 243.383 79.2079 243.481 79.0112 243.678C78.8144 243.869 78.716 244.152 78.716 244.528V246.951H77.5713ZM84.7013 247.041C83.7712 247.041 83.3062 246.605 83.3062 245.735V243.383H82.3492V242.479H82.6533C82.9276 242.479 83.1213 242.429 83.2346 242.327C83.3539 242.22 83.4135 242.044 83.4135 241.8V241.263H84.4509V242.479H85.6225V243.383H84.4509V245.583C84.4509 245.684 84.4599 245.771 84.4777 245.842C84.5016 245.914 84.5612 245.982 84.6566 246.048C84.752 246.108 84.8832 246.137 85.0501 246.137C85.1872 246.137 85.3333 246.116 85.4883 246.075V246.942C85.2022 247.008 84.9398 247.041 84.7013 247.041ZM86.8862 241.907C86.6954 241.907 86.5284 241.839 86.3853 241.701C86.2482 241.564 86.1796 241.403 86.1796 241.218C86.1796 241.022 86.2482 240.858 86.3853 240.727C86.5284 240.589 86.6954 240.521 86.8862 240.521C87.077 240.521 87.2379 240.589 87.3691 240.727C87.5062 240.858 87.5748 241.022 87.5748 241.218C87.5748 241.403 87.5062 241.564 87.3691 241.701C87.232 241.839 87.071 241.907 86.8862 241.907ZM86.3138 246.951V242.479H87.4585V246.951H86.3138ZM90.4132 247.041C89.4831 247.041 89.018 246.605 89.018 245.735V243.383H88.0611V242.479H88.3652C88.6394 242.479 88.8332 242.429 88.9465 242.327C89.0657 242.22 89.1254 242.044 89.1254 241.8V241.263H90.1628V242.479H91.3344V243.383H90.1628V245.583C90.1628 245.684 90.1717 245.771 90.1896 245.842C90.2135 245.914 90.2731 245.982 90.3685 246.048C90.4639 246.108 90.5951 246.137 90.762 246.137C90.8991 246.137 91.0452 246.116 91.2002 246.075V246.942C90.914 247.008 90.6517 247.041 90.4132 247.041ZM92.9364 248.829C92.7039 248.829 92.4624 248.796 92.212 248.731V247.881C92.3849 247.917 92.5399 247.935 92.6771 247.935C93.1719 247.935 93.4999 247.735 93.6608 247.336L93.8129 246.951H93.4551L91.747 242.479H92.9275L94.1438 245.78H94.2153L95.3511 242.479H96.5317L94.7251 247.506C94.427 248.388 93.8308 248.829 92.9364 248.829Z" fill="white"/>
<mask id="mask3_0_551" style="mask-type:luminance" maskUnits="userSpaceOnUse" x="113" y="202" width="33" height="32">
<path fill-rule="evenodd" clip-rule="evenodd" d="M145.093 202.649H113.791V233.951H145.093V202.649Z" fill="white"/>
</mask>
<g mask="url(#mask3_0_551)">
<path fill-rule="evenodd" clip-rule="evenodd" d="M113.791 218.3C113.791 226.944 120.798 233.951 129.442 233.951C138.085 233.951 145.093 226.944 145.093 218.3C145.093 209.656 138.085 202.649 129.442 202.649C120.798 202.649 113.791 209.656 113.791 218.3Z" fill="#483FDD"/>
</g>
<path d="M136.87 215.966C136.87 220.108 133.512 228.76 129.37 228.76C125.228 228.76 121.87 220.108 121.87 215.966C121.87 211.824 125.228 208.466 129.37 208.466C133.512 208.466 136.87 211.824 136.87 215.966Z" fill="#5CD6C0"/>
<circle cx="129.372" cy="215.966" r="3.08824" fill="#483FDD"/>
<path fill-rule="evenodd" clip-rule="evenodd" d="M134.175 222.948C133.842 223.527 133.507 224.105 133.175 224.683C133.089 224.832 132.98 224.947 132.799 224.965C132.569 224.988 132.403 224.883 132.307 224.645C132.135 224.219 131.967 223.792 131.796 223.365C130.839 220.963 129.882 218.562 128.925 216.16C128.793 215.827 128.902 215.537 129.205 215.474C129.321 215.45 129.461 215.48 129.575 215.525C130.963 216.073 132.349 216.628 133.735 217.182C135.158 217.75 136.581 218.318 138.004 218.886C138.314 219.01 138.453 219.266 138.324 219.519C138.272 219.621 138.17 219.714 138.068 219.774C137.499 220.113 136.922 220.441 136.349 220.773C136.308 220.797 134.199 222.907 134.175 222.948Z" fill="white"/>
<path fill-rule="evenodd" clip-rule="evenodd" d="M136.309 223.851C136.067 223.851 135.826 223.759 135.642 223.574L131.381 219.313C131.012 218.945 131.012 218.347 131.381 217.979C131.749 217.61 132.347 217.61 132.715 217.979L136.976 222.24C137.345 222.608 137.345 223.206 136.976 223.574C136.792 223.759 136.551 223.851 136.309 223.851Z" fill="white"/>
<path d="M112.899 245.896H116.02V246.951H111.745V240.691H112.899V245.896ZM118.843 247.041C118.169 247.041 117.606 246.823 117.152 246.388C116.705 245.947 116.482 245.386 116.482 244.706C116.482 244.027 116.705 243.472 117.152 243.043C117.6 242.608 118.163 242.39 118.843 242.39C119.522 242.39 120.086 242.608 120.533 243.043C120.98 243.472 121.204 244.027 121.204 244.706C121.204 245.392 120.98 245.952 120.533 246.388C120.086 246.823 119.522 247.041 118.843 247.041ZM118.843 246.048C119.206 246.048 119.502 245.92 119.728 245.663C119.955 245.407 120.068 245.088 120.068 244.706C120.068 244.331 119.955 244.018 119.728 243.767C119.502 243.511 119.206 243.383 118.843 243.383C118.479 243.383 118.184 243.511 117.957 243.767C117.737 244.018 117.626 244.331 117.626 244.706C117.626 245.088 117.74 245.407 117.966 245.663C118.193 245.92 118.485 246.048 118.843 246.048ZM124.187 247.041C123.49 247.041 122.923 246.826 122.488 246.397C122.059 245.967 121.844 245.413 121.844 244.733C121.844 244.042 122.065 243.478 122.506 243.043C122.953 242.608 123.508 242.39 124.169 242.39C124.724 242.39 125.207 242.539 125.618 242.837C126.03 243.135 126.268 243.562 126.334 244.116H125.189C125.135 243.901 125.016 243.726 124.831 243.588C124.652 243.451 124.432 243.383 124.169 243.383C123.83 243.383 123.546 243.511 123.32 243.767C123.099 244.018 122.989 244.34 122.989 244.733C122.989 245.127 123.096 245.446 123.311 245.69C123.532 245.929 123.824 246.048 124.187 246.048C124.712 246.048 125.049 245.833 125.198 245.404H126.352C126.274 245.905 126.039 246.304 125.645 246.602C125.258 246.895 124.772 247.041 124.187 247.041ZM131.289 246.093H131.397V246.951H130.914C130.443 246.951 130.142 246.772 130.01 246.415C129.682 246.832 129.191 247.041 128.535 247.041C128.058 247.041 127.673 246.93 127.381 246.71C127.095 246.483 126.952 246.155 126.952 245.726C126.952 245.32 127.086 245.004 127.354 244.778C127.628 244.545 127.986 244.408 128.427 244.367L129.823 244.223V244.036C129.823 243.797 129.754 243.615 129.617 243.49C129.48 243.365 129.298 243.302 129.071 243.302C128.612 243.302 128.344 243.526 128.266 243.973H127.122C127.169 243.496 127.366 243.114 127.712 242.828C128.058 242.536 128.511 242.39 129.071 242.39C129.632 242.39 130.088 242.536 130.44 242.828C130.791 243.114 130.967 243.544 130.967 244.116V245.753C130.967 245.979 131.075 246.093 131.289 246.093ZM129.823 245.225V245.01L128.821 245.118C128.338 245.171 128.097 245.359 128.097 245.681C128.097 246.003 128.308 246.164 128.732 246.164C129.018 246.164 129.271 246.09 129.492 245.941C129.712 245.786 129.823 245.547 129.823 245.225ZM133.868 247.041C132.938 247.041 132.473 246.605 132.473 245.735V243.383H131.516V242.479H131.82C132.094 242.479 132.288 242.429 132.401 242.327C132.521 242.22 132.58 242.044 132.58 241.8V241.263H133.618V242.479H134.789V243.383H133.618V245.583C133.618 245.684 133.627 245.771 133.644 245.842C133.668 245.914 133.728 245.982 133.823 246.048C133.919 246.108 134.05 246.137 134.217 246.137C134.354 246.137 134.5 246.116 134.655 246.075V246.942C134.369 247.008 134.107 247.041 133.868 247.041ZM136.053 241.907C135.862 241.907 135.695 241.839 135.552 241.701C135.415 241.564 135.346 241.403 135.346 241.218C135.346 241.022 135.415 240.858 135.552 240.727C135.695 240.589 135.862 240.521 136.053 240.521C136.244 240.521 136.405 240.589 136.536 240.727C136.673 240.858 136.742 241.022 136.742 241.218C136.742 241.403 136.673 241.564 136.536 241.701C136.399 241.839 136.238 241.907 136.053 241.907ZM135.481 246.951V242.479H136.625V246.951H135.481ZM139.804 247.041C139.13 247.041 138.567 246.823 138.113 246.388C137.666 245.947 137.443 245.386 137.443 244.706C137.443 244.027 137.666 243.472 138.113 243.043C138.561 242.608 139.124 242.39 139.804 242.39C140.483 242.39 141.047 242.608 141.494 243.043C141.941 243.472 142.165 244.027 142.165 244.706C142.165 245.392 141.941 245.952 141.494 246.388C141.047 246.823 140.483 247.041 139.804 247.041ZM139.804 246.048C140.167 246.048 140.463 245.92 140.689 245.663C140.916 245.407 141.029 245.088 141.029 244.706C141.029 244.331 140.916 244.018 140.689 243.767C140.463 243.511 140.167 243.383 139.804 243.383C139.44 243.383 139.145 243.511 138.918 243.767C138.698 244.018 138.587 244.331 138.587 244.706C138.587 245.088 138.701 245.407 138.927 245.663C139.154 245.92 139.446 246.048 139.804 246.048ZM142.992 246.951V242.479H144.038L144.136 243.007H144.208C144.524 242.596 144.962 242.39 145.523 242.39C146.059 242.39 146.482 242.554 146.792 242.882C147.108 243.21 147.266 243.663 147.266 244.241V246.951H146.122V244.474C146.122 244.122 146.032 243.854 145.853 243.669C145.675 243.478 145.445 243.383 145.165 243.383C144.873 243.383 144.628 243.481 144.431 243.678C144.235 243.869 144.136 244.152 144.136 244.528V246.951H142.992Z" fill="white"/>
<mask id="mask4_0_551" style="mask-type:alpha" maskUnits="userSpaceOnUse" x="162" y="202" width="33" height="32">
<path fill-rule="evenodd" clip-rule="evenodd" d="M162.775 202.649H194.077V233.951H162.775V202.649Z" fill="white"/>
</mask>
<g mask="url(#mask4_0_551)">
<path fill-rule="evenodd" clip-rule="evenodd" d="M178.426 233.951C169.782 233.951 162.775 226.944 162.775 218.3C162.775 209.656 169.782 202.649 178.426 202.649C187.07 202.649 194.077 209.656 194.077 218.3C194.077 226.944 187.07 233.951 178.426 233.951Z" fill="#483FDD"/>
</g>
<path d="M169.869 213.878C169.869 212.012 171.013 210.337 172.752 209.658L176.722 208.109C177.781 207.695 178.957 207.695 180.016 208.109L183.986 209.658C185.724 210.337 186.869 212.012 186.869 213.878V217.682C186.869 221.021 185.335 224.175 182.707 226.236L179.767 228.543C178.946 229.187 177.792 229.187 176.971 228.543L174.03 226.236C171.403 224.175 169.869 221.021 169.869 217.682V213.878Z" fill="#5CD6C0"/>
<path fill-rule="evenodd" clip-rule="evenodd" d="M182.184 220.187C182.344 219.797 182.433 219.37 182.433 218.922C182.433 217.085 180.944 215.597 179.108 215.597C177.272 215.597 175.783 217.085 175.783 218.922C175.783 220.709 177.193 222.167 178.961 222.244C178.971 222.247 178.981 222.249 178.993 222.249L182.829 222.249C182.945 222.249 182.996 222.026 182.906 221.954C182.491 221.621 182.224 221.066 182.184 220.187Z" fill="#483FDD"/>
<path fill-rule="evenodd" clip-rule="evenodd" d="M173.593 217.229C173.432 216.839 173.344 216.412 173.344 215.964C173.344 214.127 174.833 212.639 176.669 212.639C178.505 212.639 179.994 214.127 179.994 215.964C179.994 217.751 178.584 219.209 176.816 219.286C176.806 219.289 176.795 219.291 176.784 219.291L172.948 219.291C172.832 219.291 172.781 219.068 172.871 218.996C173.285 218.663 173.552 218.108 173.593 217.229Z" fill="white"/>
<path d="M163.922 240.691V246.951H162.768V242.793H162.697L161.14 246.236H159.951L158.386 242.793H158.314V246.951H157.161V240.691H158.609L160.514 244.984H160.586L162.482 240.691H163.922ZM168.131 245.538H169.231C169.142 246.003 168.912 246.37 168.543 246.638C168.179 246.906 167.714 247.041 167.148 247.041C166.474 247.041 165.922 246.832 165.493 246.415C165.064 245.991 164.849 245.44 164.849 244.76C164.849 244.045 165.064 243.472 165.493 243.043C165.928 242.608 166.465 242.39 167.103 242.39C167.699 242.39 168.2 242.584 168.605 242.971C169.017 243.359 169.223 243.931 169.223 244.688C169.223 244.742 169.217 244.852 169.205 245.019H165.985C166.009 245.347 166.122 245.616 166.325 245.824C166.534 246.027 166.808 246.128 167.148 246.128C167.678 246.128 168.006 245.932 168.131 245.538ZM167.103 243.302C166.805 243.302 166.554 243.392 166.352 243.571C166.155 243.749 166.036 243.976 165.994 244.25H168.131C168.12 243.97 168.018 243.743 167.827 243.571C167.637 243.392 167.395 243.302 167.103 243.302ZM171.874 247.041C171.26 247.041 170.783 246.906 170.443 246.638C170.103 246.364 169.918 245.991 169.889 245.52H170.989C171.048 245.967 171.34 246.191 171.865 246.191C172.056 246.191 172.211 246.155 172.33 246.084C172.455 246.006 172.518 245.89 172.518 245.735C172.518 245.574 172.452 245.452 172.321 245.368C172.196 245.279 171.999 245.198 171.731 245.127L171.311 245.019C171.132 244.978 170.977 244.933 170.846 244.885C170.72 244.832 170.589 244.76 170.452 244.671C170.315 244.575 170.211 244.453 170.139 244.304C170.067 244.149 170.032 243.967 170.032 243.758C170.032 243.329 170.193 242.995 170.515 242.757C170.837 242.512 171.233 242.39 171.704 242.39C172.276 242.39 172.715 242.518 173.019 242.775C173.323 243.031 173.493 243.359 173.529 243.758H172.429C172.381 243.413 172.142 243.24 171.713 243.24C171.534 243.24 171.391 243.281 171.284 243.365C171.176 243.442 171.123 243.553 171.123 243.696C171.123 243.839 171.176 243.943 171.284 244.009C171.397 244.068 171.588 244.134 171.856 244.206L172.276 244.313C172.706 244.42 173.034 244.581 173.26 244.796C173.493 245.01 173.609 245.315 173.609 245.708C173.609 246.149 173.445 246.483 173.117 246.71C172.795 246.93 172.381 247.041 171.874 247.041ZM176.25 247.041C175.636 247.041 175.159 246.906 174.819 246.638C174.479 246.364 174.294 245.991 174.264 245.52H175.364C175.424 245.967 175.716 246.191 176.241 246.191C176.431 246.191 176.587 246.155 176.706 246.084C176.831 246.006 176.894 245.89 176.894 245.735C176.894 245.574 176.828 245.452 176.697 245.368C176.572 245.279 176.375 245.198 176.107 245.127L175.686 245.019C175.507 244.978 175.352 244.933 175.221 244.885C175.096 244.832 174.965 244.76 174.828 244.671C174.691 244.575 174.586 244.453 174.515 244.304C174.443 244.149 174.407 243.967 174.407 243.758C174.407 243.329 174.568 242.995 174.89 242.757C175.212 242.512 175.609 242.39 176.08 242.39C176.652 242.39 177.09 242.518 177.394 242.775C177.698 243.031 177.868 243.359 177.904 243.758H176.804C176.756 243.413 176.518 243.24 176.089 243.24C175.91 243.24 175.767 243.281 175.659 243.365C175.552 243.442 175.498 243.553 175.498 243.696C175.498 243.839 175.552 243.943 175.659 244.009C175.773 244.068 175.963 244.134 176.232 244.206L176.652 244.313C177.081 244.42 177.409 244.581 177.636 244.796C177.868 245.01 177.985 245.315 177.985 245.708C177.985 246.149 177.821 246.483 177.493 246.71C177.171 246.93 176.756 247.041 176.25 247.041ZM182.984 246.093H183.092V246.951H182.609C182.138 246.951 181.837 246.772 181.706 246.415C181.378 246.832 180.886 247.041 180.23 247.041C179.753 247.041 179.368 246.93 179.076 246.71C178.79 246.483 178.647 246.155 178.647 245.726C178.647 245.32 178.781 245.004 179.049 244.778C179.324 244.545 179.681 244.408 180.123 244.367L181.518 244.223V244.036C181.518 243.797 181.449 243.615 181.312 243.49C181.175 243.365 180.993 243.302 180.766 243.302C180.307 243.302 180.039 243.526 179.962 243.973H178.817C178.865 243.496 179.061 243.114 179.407 242.828C179.753 242.536 180.206 242.39 180.766 242.39C181.327 242.39 181.783 242.536 182.135 242.828C182.487 243.114 182.662 243.544 182.662 244.116V245.753C182.662 245.979 182.77 246.093 182.984 246.093ZM181.518 245.225V245.01L180.516 245.118C180.033 245.171 179.792 245.359 179.792 245.681C179.792 246.003 180.003 246.164 180.427 246.164C180.713 246.164 180.966 246.09 181.187 245.941C181.407 245.786 181.518 245.547 181.518 245.225ZM187.993 242.605C187.821 242.784 187.579 242.948 187.269 243.097C187.46 243.341 187.555 243.621 187.555 243.937C187.555 244.402 187.379 244.769 187.028 245.037C186.676 245.306 186.226 245.44 185.677 245.44C185.409 245.44 185.158 245.407 184.926 245.341C184.783 245.413 184.711 245.511 184.711 245.636C184.711 245.863 184.908 245.976 185.302 245.976H186.178C186.703 245.976 187.105 246.096 187.385 246.334C187.666 246.567 187.806 246.889 187.806 247.3C187.806 247.777 187.618 248.15 187.242 248.418C186.867 248.692 186.354 248.829 185.704 248.829C185.036 248.829 184.517 248.686 184.148 248.4C183.784 248.12 183.578 247.762 183.531 247.327L184.21 246.728C183.871 246.543 183.701 246.268 183.701 245.905C183.701 245.541 183.9 245.249 184.3 245.028C183.948 244.754 183.772 244.39 183.772 243.937C183.772 243.49 183.939 243.12 184.273 242.828C184.613 242.536 185.063 242.39 185.623 242.39C186.017 242.39 186.363 242.465 186.661 242.614C186.977 242.453 187.233 242.241 187.43 241.979L187.993 242.605ZM185.677 244.608C185.916 244.608 186.106 244.545 186.25 244.42C186.393 244.289 186.464 244.122 186.464 243.919C186.464 243.711 186.393 243.541 186.25 243.41C186.112 243.278 185.922 243.213 185.677 243.213C185.433 243.213 185.236 243.278 185.087 243.41C184.938 243.541 184.863 243.711 184.863 243.919C184.863 244.122 184.938 244.289 185.087 244.42C185.236 244.545 185.433 244.608 185.677 244.608ZM186.715 247.363C186.715 247.19 186.649 247.064 186.518 246.987C186.387 246.909 186.226 246.871 186.035 246.871H185.221L184.631 247.372C184.684 247.544 184.801 247.688 184.98 247.801C185.164 247.914 185.409 247.971 185.713 247.971C186.005 247.971 186.244 247.917 186.428 247.81C186.619 247.708 186.715 247.559 186.715 247.363ZM189.154 241.907C188.963 241.907 188.796 241.839 188.653 241.701C188.516 241.564 188.448 241.403 188.448 241.218C188.448 241.022 188.516 240.858 188.653 240.727C188.796 240.589 188.963 240.521 189.154 240.521C189.345 240.521 189.506 240.589 189.637 240.727C189.774 240.858 189.843 241.022 189.843 241.218C189.843 241.403 189.774 241.564 189.637 241.701C189.5 241.839 189.339 241.907 189.154 241.907ZM188.582 246.951V242.479H189.727V246.951H188.582ZM190.722 246.951V242.479H191.768L191.866 243.007H191.938C192.254 242.596 192.692 242.39 193.253 242.39C193.789 242.39 194.212 242.554 194.522 242.882C194.838 243.21 194.996 243.663 194.996 244.241V246.951H193.852V244.474C193.852 244.122 193.762 243.854 193.583 243.669C193.405 243.478 193.175 243.383 192.895 243.383C192.603 243.383 192.358 243.481 192.161 243.678C191.965 243.869 191.866 244.152 191.866 244.528V246.951H190.722ZM200.16 242.605C199.987 242.784 199.745 242.948 199.435 243.097C199.626 243.341 199.721 243.621 199.721 243.937C199.721 244.402 199.545 244.769 199.194 245.037C198.842 245.306 198.392 245.44 197.843 245.44C197.575 245.44 197.325 245.407 197.092 245.341C196.949 245.413 196.877 245.511 196.877 245.636C196.877 245.863 197.074 245.976 197.468 245.976H198.344C198.869 245.976 199.271 246.096 199.551 246.334C199.832 246.567 199.972 246.889 199.972 247.3C199.972 247.777 199.784 248.15 199.408 248.418C199.033 248.692 198.52 248.829 197.87 248.829C197.202 248.829 196.684 248.686 196.314 248.4C195.95 248.12 195.745 247.762 195.697 247.327L196.377 246.728C196.037 246.543 195.867 246.268 195.867 245.905C195.867 245.541 196.067 245.249 196.466 245.028C196.114 244.754 195.938 244.39 195.938 243.937C195.938 243.49 196.105 243.12 196.439 242.828C196.779 242.536 197.229 242.39 197.79 242.39C198.183 242.39 198.529 242.465 198.827 242.614C199.143 242.453 199.399 242.241 199.596 241.979L200.16 242.605ZM197.843 244.608C198.082 244.608 198.273 244.545 198.416 244.42C198.559 244.289 198.63 244.122 198.63 243.919C198.63 243.711 198.559 243.541 198.416 243.41C198.279 243.278 198.088 243.213 197.843 243.213C197.599 243.213 197.402 243.278 197.253 243.41C197.104 243.541 197.029 243.711 197.029 243.919C197.029 244.122 197.104 244.289 197.253 244.42C197.402 244.545 197.599 244.608 197.843 244.608ZM198.881 247.363C198.881 247.19 198.815 247.064 198.684 246.987C198.553 246.909 198.392 246.871 198.201 246.871H197.387L196.797 247.372C196.851 247.544 196.967 247.688 197.146 247.801C197.331 247.914 197.575 247.971 197.879 247.971C198.171 247.971 198.41 247.917 198.595 247.81C198.785 247.708 198.881 247.559 198.881 247.363Z" fill="white"/>
</g>
<defs>
<clipPath id="clip0_0_551">
<rect width="211.09" height="626.515" fill="white" transform="translate(-0.515625 -19.874)"/>
</clipPath>
<clipPath id="clip1_0_551">
<rect x="7.86719" y="27.4658" width="194" height="164" rx="5.5896" fill="white"/>
</clipPath>
</defs>
</svg>
